<?xml version="1.0" encoding="UTF-8"?>
<svg id="a" data-name="Layer 1" xmlns="http://www.w3.org/2000/svg" width="100mm" height="100mm" viewBox="0 0 283.465 283.465">
  <path d="M196.969,244.738l-112.753-.2c-21.679-.038-41.57-17.869-41.62-40.415l-.278-123.493c-.051-22.863,19.514-41.834,42.036-41.85l113.856-.08c23.68-.017,42.988,19.199,42.988,43.013l-.002,119.65c0,24.247-19.881,43.417-44.227,43.374ZM138.906,177.01c3.628-.625,5.917-3.685,5.346-7.436l-3.009-19.761c7.672-1.246,14.22-2.04,20.842-4.561,15.782-6.008,24.602-21.103,23.975-37.717-.374-9.92-3.772-18.837-11.96-24.878-18.124-13.371-46.687-8.332-69.335-3.514-4.159.885-7.773,3.219-7.673,8.138l.291,14.337c.027,1.315.812,4.06,1.798,4.683s3.232,1.095,5.384,1.594l10.344,66.194c.597,3.82,4.54,6.271,8.363,5.612l15.635-2.692ZM92.042,192.305c28.399,25.336,72.663,20.35,99.611-6.295,2.362-2.336,1.067-6.909-1.07-8.188-2.753-1.648-5.423-.974-7.922,1.129-23.242,19.555-59.248,22.972-83.763,4.035-2.623-2.026-6.385-1.051-8.042,1.585-1.325,2.109-1.317,5.5,1.187,7.734Z" fill="#fb7115"/>
  <g>
    <path d="M92.042,192.305c-2.505-2.234-2.513-5.625-1.187-7.734,1.657-2.637,5.419-3.611,8.042-1.585,24.516,18.938,60.521,15.52,83.763-4.035,2.5-2.103,5.169-2.777,7.922-1.129,2.138,1.279,3.433,5.853,1.07,8.188-26.948,26.645-71.212,31.631-99.611,6.295Z" fill="#fdf7ef"/>
    <g>
      <path d="M138.906,177.01l-15.635,2.692c-3.824.658-7.766-1.793-8.363-5.612l-10.344-66.194c-2.152-.499-4.398-.971-5.384-1.594s-1.771-3.368-1.798-4.683l-.291-14.337c-.1-4.92,3.514-7.254,7.673-8.138,22.648-4.818,51.211-9.858,69.335,3.514,8.188,6.041,11.585,14.958,11.96,24.878.627,16.615-8.192,31.709-23.975,37.717-6.622,2.521-13.17,3.315-20.842,4.561l3.009,19.761c.571,3.751-1.718,6.811-5.346,7.436ZM152.327,122.165c5.218-5.355,5-13.811-.652-17.951-5.152-3.774-12.293-3.382-17.575-1.248l4.061,24.985c5.132-.431,10.459-1.981,14.166-5.786Z" fill="#fdf7ef"/>
      <path d="M152.327,122.165c-3.708,3.805-9.034,5.356-14.166,5.786l-4.061-24.985c5.282-2.134,12.423-2.526,17.575,1.248,5.652,4.14,5.87,12.595.652,17.951Z" fill="#fb7115"/>
    </g>
  </g>
</svg>