<?xml version="1.0" encoding="UTF-8"?>
<svg id="a" data-name="Layer 1" xmlns="http://www.w3.org/2000/svg" viewBox="51.89 58.52 183.06 183.06">
  <path d="M161.132,225.675l-41.661-.068c-35.715-9.305-58.07-42.883-56.227-79.507-.438-6.122,1.278-11.74,5.516-15.37,4.278-3.665,9.703-5.005,15.712-4.661l-9.555-26.347c-3.525-9.721,1.408-19.652,10.36-23.68,8.173-3.677,20.308-1.127,23.862,8.509l15.363,41.657,81.856-.053c11.638-.008,17.041,9.672,17.321,19.827.891,32.294-15.569,61.701-44.93,75.501-5.334,2.507-11.071,4.201-17.616,4.19ZM111.366,125.919l-12.581-35.146c-1.323-3.695-6.715-4.714-9.702-2.791-2.601,1.675-3.589,5.462-2.336,8.877l10.722,29.217,13.897-.156ZM166.593,211.828c45.091-11.057,50.432-72.712,40.744-72.716l-126.666-.057c-3.831-.002-5.02,2.722-5.158,6.004-.913,21.784,6.757,43.105,24.286,56.809,5.415,4.233,13.575,10.562,20.812,10.546,15.047-.035,30.918,3.107,45.981-.586Z" fill="currentColor"/>
</svg>
