<?xml version="1.0" encoding="UTF-8"?>
<svg id="a" data-name="Layer 1" xmlns="http://www.w3.org/2000/svg" width="100mm" height="100mm" viewBox="81.469 75.564 121.641 121.641">
  <path d="M192.089,111.253l.007,63.668c0,8.174-7.834,14.748-15.581,14.755l-67.856.06c-8.268.007-15.992-6.214-16.016-15.075l-.16-60.801c-.022-8.248,5.017-16.019,13.501-16.693l9.545-.758-.125-7.85c-.035-2.18,1.906-4.965,3.712-5.43,2.165-.557,5.954,1.423,5.988,3.314l.186,10.32,34.655-.016.219-10.32c.038-1.811,3.881-3.804,5.973-3.288,1.83.451,3.798,3.248,3.773,5.418l-.092,8.099,11.04.903c5.597.458,11.229,7.095,11.23,13.695ZM169.845,107.532l.131,2.449c.177,3.314-1.776,6.333-4.899,6.419-2.787.077-4.94-2.512-5.148-5.283l-.31-4.122-34.213.199-.438,6.004c-.126,1.728-3.924,3.649-5.791,3.165-5.286-1.37-2.877-9.127-4.16-9.226l-3.56-.275c-2.421-.187-8.427.746-8.438,4.43l-.186,61.592c-.009,2.83,1.962,6.474,4.963,6.475l68.759.021c2.913,0,5.787-2.517,5.788-5.569l.005-59.97c0-2.047-1.067-5.189-2.54-5.773-4.73-1.875-9.995-1.143-9.963-.535Z" fill="currentColor"/>
  <path d="M135.272,158.409l-9.294-9.148c-1.483-1.46-1.876-4.909-.751-6.342,1.391-1.772,5.348-2.265,6.765-.926l7.025,6.643,15.126-15.649c1.117-1.156,5.112-.95,6.348.235,1.287,1.233,1.629,5.056.214,6.529l-17.289,17.998c-2.198,2.288-5.749,3.014-8.143.658Z" fill="currentColor"/>
</svg>