<?xml version="1.0" encoding="UTF-8"?>
<svg id="a" data-name="Layer 1" xmlns="http://www.w3.org/2000/svg" width="100mm" height="100mm" viewBox="77.629 75.205 139.544 139.544">
  <path d="M118.153,206.112c-3.507-.004-5.618-2.483-5.843-5.298l-3.485-43.503c-16.328-5.583-24.684-23.571-18.751-39.973,4.662-12.888,16.679-20.648,30.821-19.618,6.189-9.064,15.726-13.916,26.302-13.946,10.613-.031,20.269,4.637,26.669,13.874,15.92-1.019,29.339,9.44,32.208,24.542,2.811,14.794-5.092,29.917-19.925,35.036l-3.927,43.603c-.239,2.657-1.852,4.751-4.551,5.352l-59.519-.069ZM173.329,196.629l4.25-46.732c10.588-1.635,17.905-8.491,19.385-18.349,1.096-7.305-1.063-14.008-6-18.664-11.201-10.563-20.258-1.481-24.397-9.127-4.402-8.131-13.322-11.03-22.069-10.492-8.069.497-14.581,6.555-18.703,14.072-13.202-2.346-25.748,3.716-27.975,17.012-2.053,12.261,5.949,23.714,19.55,25.6l3.972,46.772,51.987-.092Z" fill="currentColor"/>
  <path d="M142.141,168.598c.173,2.295-1.278,5.175-2.904,5.695-2.498.8-5.671-.778-5.847-3.286l-1.156-16.487c-.156-2.222,1.801-4.902,3.931-5.158,2.113-.254,4.678,2.001,4.836,4.105l1.139,15.13Z" fill="currentColor"/>
  <path d="M161.327,168.495c-.18,3.081-1.371,5.63-4.109,5.868-2.879.25-5.076-2.337-4.84-5.448l1.166-15.429c.122-1.615,2.205-3.983,3.667-4.195,2.027-.294,5.113,2.104,4.994,4.137l-.878,15.067Z" fill="currentColor"/>
</svg>