<?xml version="1.0" encoding="UTF-8"?>
<svg id="a" data-name="Layer 1" xmlns="http://www.w3.org/2000/svg" viewBox="31.96 32.50 234.17 234.17">
  <path d="M251.749,149.585c0,56.721-45.981,102.702-102.702,102.702s-102.702-45.981-102.702-102.702,45.981-102.702,102.702-102.702,102.702,45.981,102.702,102.702ZM239.047,149.634c0-49.679-40.273-89.951-89.951-89.951s-89.951,40.273-89.951,89.951,40.273,89.951,89.951,89.951,89.951-40.273,89.951-89.951Z" fill="currentColor"/>
  <path d="M176.554,181.63l-31.834-23.849c-1.754-1.314-3.323-4.271-3.318-6.617l.102-48.745c.006-3.005,4.227-5.683,6.436-5.75,2.611-.079,6.423,2.269,6.429,5.539l.088,46.984,27.295,20.579c2.691,2.029,4.083,5.268,3.108,8.155-.74,2.19-5.372,5.901-8.307,3.703Z" fill="currentColor"/>
  <path d="M77.94,143.445c4.938.325,7.673,3.143,7.488,7.175-.181,3.952-3.771,5.931-8.021,5.983-4.289.052-7.962-2.173-8.139-6.02-.213-4.644,3.326-7.49,8.672-7.138Z" fill="currentColor"/>
  <path d="M155.118,220.775c.038,3.027-.941,6.246-2.994,7.659-1.723,1.185-5.11,1.19-7.212-.238-1.612-1.095-2.532-4.453-2.58-6.953-.082-4.273,2.197-7.47,5.595-7.806,4.043-.399,7.126,2.163,7.191,7.337Z" fill="currentColor"/>
  <path d="M225.155,144.279c2.508.311,4.347,5.071,3.657,7.272-.921,2.94-3.863,4.908-7.323,5.136-4.087.27-7.641-1.598-8.385-5.08-.787-3.682,1.787-8.603,6.368-8.034l5.683.706Z" fill="currentColor"/>
  <path d="M155.103,76.75c.079,3.058-.828,6.322-2.82,7.747-1.701,1.218-5.34,1.189-7.366-.228-1.565-1.094-2.439-4.494-2.487-7.013-.078-4.068,2.275-7.087,5.558-7.451,3.901-.433,6.984,1.88,7.115,6.945Z" fill="currentColor"/>
</svg>
