<?xml version="1.0" encoding="UTF-8"?>
<svg id="a" data-name="Layer 1" xmlns="http://www.w3.org/2000/svg" viewBox="37.86 33.54 213.36 213.36">
  <path d="M218.086,207.949l-145.117.055c-6.354.002-12.204-1.817-16.658-6.17-3.392-3.316-5.595-7.787-5.331-12.53.362-6.517,5.501-11.567,11.926-11.686l4.31-.08.065-10.619c.085-13.984,4.718-27.257,12.206-39.061,11.53-18.177,30.34-30.607,51.439-34.258-2.126-4.406-2.112-9.02.112-13.109,2.446-4.499,6.888-7.312,11.672-7.929,5.193-.67,10.335,1.297,13.699,5.282,3.769,4.465,4.642,10.381,1.919,15.783,35.597,6.252,61.51,35.618,63.702,71.757l.092,12.186,4.95.098c6.512.128,11.063,5.866,11.039,12.395-.037,10.154-10.163,17.88-20.022,17.884ZM149.555,92.606c1.773-1.272,2.995-3.314,3.036-5.356.042-2.031-.915-3.965-2.623-5.371-3.659-3.012-9.457-2.235-12.11,1.672-2.198,3.237-1.156,7.343,2.17,9.061l9.527-.005ZM214.674,177.583l-.086-12.047c-2.127-36.153-31.511-64.268-67.44-65.431-27.885-.903-53.703,14.238-65.733,39.714-3.455,7.317-5.848,15.131-6.519,23.382l-.171,14.389,139.948-.007ZM217.262,200.224c6.611,0,12.594-3.641,13.534-9.584.325-2.059-1.122-5.3-3.796-5.3H62.261c-3.016-.001-4.382,3.354-3.891,5.858,1.051,5.358,7.185,9.022,12.609,9.022l146.283.004ZM131.33,120.556c1.791-.408,2.366-2.989,2.108-4.226-.311-1.492-1.795-3.28-3.758-2.884-19.914,4.021-34.068,19.254-39.161,38.661-.583,2.224.605,4.323,2.654,4.774,1.799.397,3.954-.482,4.516-2.695,4.371-17.204,16.619-29.748,33.641-33.631Z" fill="currentColor"/>
</svg>
