<?xml version="1.0" encoding="UTF-8"?>
<svg id="a" data-name="Layer 1" xmlns="http://www.w3.org/2000/svg" width="100mm" height="100mm" viewBox="51.555 71.774 169.053 169.053">
  <path d="M205.638,186.5c-9.112,4.944-19.451-5.082-28.166-13.628-27.235,31.109-68.979,34.387-99.382,6.682-5.992-5.461-10.543-11.351-15.085-18.252-1.513-2.3-1.348-6.473.035-8.849,6.82-11.713,15.774-21.017,27.115-28.124,25.731-16.124,58.083-12.743,80.121,7.992l7.356,7.433c8.687-8.007,19.359-17.871,28.053-12.584,2.423,1.473,4.549,5.289,4.542,8.595l-.091,43.204c-.006,2.75-2.563,6.479-4.499,7.53ZM200.975,179.131l.05-44.884c-10.959,3.868-18.321,15.603-22.987,16.588-1.279.27-3.794-1.359-4.797-2.34l-11.171-10.928c-18.19-15.833-43.456-18.412-64.558-6.663-11.045,6.15-19.618,14.934-26.221,25.74,18.693,30.268,55.556,42.447,84.694,22.541,6.37-4.351,11.755-9.291,16.98-15.059,7.57-8.356,12.096,8.123,28.01,15.004Z" fill="currentColor"/>
  <circle cx="102.701" cy="153.533" r="7.603" fill="currentColor"/>
</svg>