<?xml version="1.0" encoding="UTF-8"?>
<svg id="a" data-name="Layer 1" xmlns="http://www.w3.org/2000/svg" width="100mm" height="100mm" viewBox="51.705 58.35 143.024 143.024">
  <path d="M79.179,169.339c-10.218-4.722-18.508-12.651-13.967-20.829,3.795-6.834,15.814-2.089,33.763-7.126,18.343-5.148,32.084-17.641,39.502-35.165,2.595-6.13,5.769-11.741,10.569-16.572-2.971-3.182-5.851-7.148-6.25-11.847-.355-4.182,3.034-9.818,7.435-10.231,6.011-.564,12.107-.63,18.053.085,5.676.683,8.899,7.982,7.177,13.02-1.161,3.396-3.045,6.194-5.179,9.3,19.943,22.514,13.57,59.349-5.49,81.33-18.97,21.877-50.332,27.68-75.474,13.724-5.914-3.283-10.124-8.11-10.139-15.689ZM167.421,76.293l-16.655-.055,5.026,9.426c.681,1.697,2.032,3.609,3.994,3.275,1.648-.28,6.133-7.449,7.635-12.646ZM72.933,153.354c4.307,6.891,11.117,8.663,18.307,9.35,19.073,1.823,37.711-3.895,49.87-19.054,10.634-13.257,15.34-29.97,14.432-47.119-3.904,3.314-6.047,7.202-7.923,11.537-14.109,32.608-39.357,45.905-74.686,45.286ZM104.393,181.139c21.828,5.987,43.944-2.251,56.842-20.392s18.435-45.704,2.966-64.182c1.329,22.602-6.022,44.82-23.005,60.096-14.445,12.993-33.251,16.791-52.604,14.777,3.722,5.691,9.36,7.935,15.8,9.701Z" fill="currentColor"/>
</svg>