<?xml version="1.0" encoding="UTF-8"?>
<svg id="a" data-name="Layer 1" xmlns="http://www.w3.org/2000/svg" width="100mm" height="100mm" viewBox="56.127 54.694 174.185 174.185">
  <path d="M129.067,186.008c-6.209,11.996-21.414,38.994-27.506,30.578-1.262-1.744-.849-4.875.932-6.794,7.493-8.073,12.634-17.205,18.42-27.169-17.251-8.893-24.113-28.287-17.761-47.09,1.462-4.328,4.277-8.377,9.59-6.652,10.357,3.362,17.681,11.719,21.05,21.66l2.625-9.993c-16.87-7.883-23.059-26.474-16.797-43.574,1.446-3.948,4.655-7.287,9.653-5.548,3.697,1.286,7.387,3.761,11.304,6.462-1.603-22.716,23.942-39.425,29.046-29.646,6.601,12.65,5.949,27.737-2.444,38.506,5.891-.212,11.568-.197,15.999,2.7,3.486,2.279,2.513,6.988,1.478,10.212-5.659,17.621-21.846,27.812-40.063,23.852l-2.37,8.592c9.086-6.693,27.966-5.63,31.625-.315,1.061,1.541.679,5.302.14,7.202-5.716,20.153-24.92,31.406-44.922,27.019ZM163.974,76.008l-1.604-1.552c-12.667,7.245-17.273,22.487-10.408,35.271,11.752-7.069,16.254-20.712,12.012-33.719ZM127.976,100.148c-5.512,12.213-.378,26.317,11.368,32.047,6.958-12.388,1.163-26.006-11.368-32.047ZM176.207,115.963c-14.888-3.699-26.478,6.55-28.378,19.562,13.602,2.219,26.088-7.107,28.378-19.562ZM127.416,166.652c1.842-12.363-4.808-23.504-15.478-29.157-5.928,14.096-.588,30.483,12.924,36.719l2.554-7.562ZM132.959,177.729c16.142,1.975,28.487-7.314,32.369-21.073-10.45-2.621-22.031.987-27.797,10.066-2.05,3.227-3.594,8.104-4.572,11.008Z" fill="currentColor"/>
</svg>