<?xml version="1.0" encoding="UTF-8"?>
<svg id="a" data-name="Layer 1" xmlns="http://www.w3.org/2000/svg" width="100mm" height="100mm" viewBox="64.525 64.754 127.501 127.501">
  <path d="M181.078,171.828c-.011,9.062-8.288,12.813-15.615,12.382-4.634-.273-8.418-.358-11.957-3.383-2.344-2.003-4.489-6.323-4.48-10.506l.172-84.884c.018-9.048,8.24-13.397,16.114-12.8,4.294.326,8.06.46,11.18,2.931,2.918,2.311,4.699,6.379,4.693,10.83l-.106,85.431ZM172.363,168.767l-.014-82.411c0-1.047-.784-3.716-1.719-3.884l-4.446-.798c-2.22-.398-6.784.312-8.282,2.344l.099,87.866c.003,2.6,5.263,3.785,7.231,3.411l5.48-1.042c1.175-.223,1.652-3.359,1.651-5.487Z" fill="currentColor"/>
  <path d="M144.492,169.726c.032,10.243-7.432,14.663-16.106,14.7-8.73.037-16.263-4.504-16.237-14.171l.14-50.728c.027-9.628,7.682-13.254,16.106-13.276,8.325-.022,15.913,3.763,15.942,13.288l.155,50.187ZM135.603,168.841l-.026-49.883c-.002-2.833-4.771-4.164-7.008-3.757l-5.677,1.035c-1.235.225-1.782,3.583-1.779,4.959l.116,51.337c2.113,3.563,11.001,3.244,13.179,1.377.77-.66,1.196-3.343,1.195-5.068Z" fill="currentColor"/>
  <path d="M107.527,171.684c-.092,9.653-8.494,12.731-16.129,12.678s-15.744-3.33-15.819-12.347l-.213-25.529c-.078-9.326,7.224-14.362,16.087-13.832,4.259.255,8.475.254,11.912,3.093,2.375,1.962,4.442,6.569,4.404,10.508l-.243,25.43ZM98.816,171.783l.103-26.331c.013-3.268-4.733-4.358-7.42-4.139-3.54.288-5.745,1.011-7.45,3.59l.229,26.876c.038,4.51,14.519,4.737,14.538.004Z" fill="currentColor"/>
</svg>