<?xml version="1.0" encoding="UTF-8"?>
<svg id="a" data-name="Layer 1" xmlns="http://www.w3.org/2000/svg" width="100mm" height="100mm" viewBox="75.923 80.304 133.185 133.185">
  <path d="M165.619,201.708c-2.496,3.347-5.937,4.625-8.821,2.691-8.134-5.454,3.167-10.97,8.491-25.084,4.995-13.24.438-25.906-10.265-34.653-11.674-9.54-16.824-23.786-11.193-38.186,3.973-10.159,11.94-22.322,18.267-16.466,2.695,2.495,2.419,6.533-.323,9.429-5.708,6.028-9.502,14.091-7.677,22.496,1.346,6.196,5.707,11.115,10.372,15.247,20.944,18.546,17.738,42.285,1.15,64.526Z" fill="currentColor"/>
  <path d="M145.761,179.233c-1.629,12.175-12.515,31.135-19.668,24.826-2.948-2.6-2.493-6.259-.001-9.285,6.835-8.3,10.752-19.247,6.033-29.478-2.484-5.385-7.339-9.929-11.895-13.737-12.528-10.473-17.453-26.221-12.324-41.915,2.284-6.988,6.372-13.199,11.116-18.909,2.471-2.974,6.939-2.822,9.303.021,2.26,2.719,1.382,6.092-1.258,8.966-6.974,7.591-11.143,17.726-8.739,27.959,1.81,7.702,7.31,13.412,13.132,18.53,9.673,8.503,16.069,19.812,14.301,33.021Z" fill="currentColor"/>
</svg>