<?xml version="1.0" encoding="UTF-8"?>
<svg id="a" data-name="Layer 1" xmlns="http://www.w3.org/2000/svg" width="100mm" height="100mm" viewBox="88.737 82.394 123.509 123.509">
  <path d="M158.633,166.471c-.092-4.877-15.482-4.675-15.586.194l-.469,21.788c-.113,5.258-4.819,9.721-9.903,9.748l-22.205.118c-7.021.037-12.991-5.562-13.008-12.847l-.11-46.975c-.004-1.512,1.255-4.599,2.003-6.142l44.392-39.563c4.627-4.073,9.893-3.531,14.247.38l40.501,36.384c3.15,2.83,5.146,5.553,5.135,9.978l-.113,45.857c-.016,6.583-5.11,12.661-11.895,12.721l-22.134.194c-5.512.048-10.327-3.954-10.437-9.767l-.417-22.068ZM152.205,152.574c8.353.461,16.722,4.842,16.816,14.037l.219,21.266,23.833-.341.088-48.532-42.408-38.366-42.939,38.41.205,48.621,24.393.263.089-19.291c.051-11.05,8.582-16.682,19.702-16.068Z" fill="currentColor"/>
</svg>