<?xml version="1.0" encoding="UTF-8"?>
<svg id="a" data-name="Layer 1" xmlns="http://www.w3.org/2000/svg" width="100mm" height="100mm" viewBox="83.496 76.72 127.921 127.921">
  <path d="M186.058,160.15l-31.828,29.525c-4.604,4.271-9.403,4.082-14.117-.074-12.419-10.95-25.063-21.39-35.685-34.081-9.783-11.687-14.776-25.757-12.555-40.741,2.283-16.557,16.664-27.522,33.104-26.093,9.282.807,16.996,5.001,22.771,12.356,7.114-8.576,16.458-12.718,26.682-12.283,9.564.407,18.8,5.355,24.368,14.442,10.696,17.457,2.049,43.23-12.74,56.948ZM191.17,113.724c-1.683-6.565-7.535-11.763-13.706-13.08-10.093-2.154-20.305,3.581-24.286,12.886-1.045,2.441-3.179,4.279-5.578,4.294-6.502.041-6.334-14.154-20.013-17.209-7.152-1.597-14.494-.02-19.415,5.079-10.916,11.311-3.975,34.388,6.623,44.386l32.435,30.597,34.532-33.186c8.121-9.446,12.648-21.125,9.407-33.768Z" fill="currentColor"/>
</svg>