<?xml version="1.0" encoding="UTF-8"?>
<svg xmlns="http://www.w3.org/2000/svg" width="299.15mm" height="100mm" viewBox="0 0 847.983 283.465">
  <g id="a" data-name="Layer 1">
    <path d="M107.713,243.459c-13.666,5.21-26.732,8.068-40.894,9.879-5.424.694-11.874-3.014-13.403-8.559-6.239-22.63-11.453-44.666-15.623-67.989l-15.25-85.308c-3.956,1.713-8.402,2.934-11.8,1.351-2.733-1.273-5.587-5.235-6.165-8.887C2.204,68.938.686,54.41.013,39.264c-.263-5.904,3.517-9.739,8.534-11.729C45.695,12.802,99.616-1.448,136.716,12.881c16.196,6.255,28.345,19.238,33.211,36.337,7.193,25.273,7.879,52.423,1.112,77.783-8.774,32.882-34.88,48.513-66.415,57.776l9.038,46.684c.823,4.25-1.475,10.292-5.949,11.997ZM119.398,94.762c-1.33-6.981-3.187-13.735-9.044-17.59-7.48-4.922-15.947-4.715-25.405-2.54l9.031,56.591c17.897-1.973,28.937-17.998,25.419-36.461ZM244.705,181.663c-2.012-9.238-3.12-18.172-3.605-27.666l-1.316-25.737c-.801-15.668-.642-31.011.088-46.666l1.065-22.846.995-16.269,1.229-18.512c.364-5.488-1.487-12.273-8.072-12.905-14.509-1.392-28.936,1.725-42.622,5.941-7.577,2.334-10.408,8.184-9.976,15.881l8.483,150.98c1.565,27.858,11.086,56.769,41.034,57.969,15.133.606,28.991-4.562,42.354-11.368,5.137-2.616,9.197-7.613,7.256-14.055l-7.227-23.982c-1.558-5.169-5.987-7.106-10.725-6.455l-10.352,1.423c-3.263.448-7.856-2.27-8.61-5.731ZM768.689,263.221c10.6-14.091,19.337-28.392,27.48-44.301,20.853-40.739,37.657-82.833,51.259-126.47,1.999-6.412-1.625-12.213-7.115-14.405-10.324-4.121-20.563-6.521-31.814-7.503-4.472-.39-9.441,2.35-10.757,6.844l-17.595,60.079-14.038-62.292c-1.119-4.963-5.185-9.145-10.852-8.842-12.527.669-24.591,3.509-36.165,8.292-4.448,1.838-8.479,7.183-7.051,12.201,10.009,35.163,21.944,73.446,38.634,105.455l-12.104,22.349c-7.847,14.489-19.471,25.154-32.833,34.578-4.077,2.875-3.869,10.558-.486,13.811,8.943,8.599,19.342,14.896,30.821,19.186,5.624,2.102,11.145,1.759,16.139-2.397,6.157-5.124,11.812-10.383,16.477-16.584ZM716.758,193.214c-.04-2.642-1.957-6.814-3.877-8.005-5.538-3.435-13.305.586-17.541-3.947-5.22-5.586.534-56.257,3.685-72.531l12.499-64.546c1.122-5.792-.96-11.837-7.248-13.807-12.922-4.048-26.757-5.54-40.475-5.075-5.132.174-10.443,3.698-11.089,9.21l-8.055,68.749-5.686,60.856-1.047,21.763c-.602,12.522,2.134,25.577,10.504,35.238,12.794,14.767,41.442,12.827,60.641,5.465,4.956-1.9,8.104-5.867,8.013-11.912l-.325-21.459ZM322.655,209.171c-21.998.712-39.363-12.482-44.003-33.35-4.671-21.008,4.083-41.948,23.252-52.629,7.888-4.395,17.307-7.557,26.567-7.763l16.986-.379c-.572-6.761-3.713-11.974-10.483-12.836-11.151-1.421-22.732,1.703-32.591,7.5-4.467,2.626-10.295,1.892-12.798-3.402-4.17-8.819-7.618-17.849-10.484-27.452-1.174-3.932,2.099-8.714,5.06-11.246,17.805-15.226,40.407-21.786,63.693-18.396,18.576,2.705,33.687,15.073,39.997,32.815,9.079,25.529,4.785,51.463,9.828,74.649,1.17,5.381,4.599,8.472,9.327,10.702,8.057,3.801,5.726,22.769-1.099,30.716-6.639,7.73-18.34,10.844-28.129,9.024-8.26-1.536-13.131-7.784-18.013-15.215-8.72,11.719-22.113,16.778-37.109,17.264ZM347.847,162.269l-.272-13.063c-7.324-2.073-15.452-1.057-20.746,4.311-3.839,3.892-4.28,9.389-1.645,13.536,2.39,3.762,7.629,5.022,12.414,3.868,4.159-1.003,10.367-3.013,10.25-8.653ZM500.301,172.609c-.483-1.978-3.265-5.012-5.041-5.678-4.05-1.52-17.842,3.58-19.205-3.674-2.771-14.752-1.348-29.666-1.104-44.686l.456-28.005,26.915.932c5.352.185,10.857-1.446,12.796-7.056,4.066-11.762,6.848-23.849,8.306-36.511.569-4.944-3.436-10.088-8.229-10.812-12.652-1.91-24.893-2.452-38.14-2.416l-.307-24.77c-.191-15.388-25.514-9.633-41.706-4.312-5.805,1.908-10.721,6.299-10.794,13.14l-.227,21.119-19.648,4.494c-6.373,1.458-9.976,7.803-9.146,14.435l3.319,26.497c.571,4.56,3.995,10.951,9.404,10.382l15.306-1.612.123,80.457c.017,11.145,4.241,22.062,10.884,30.348,14.757,18.407,44.549,14.419,65.281,3.249,4.443-2.393,7.613-7.411,6.376-12.481l-5.619-23.038ZM446.147,236.639c-13.75-4.002-25.976-9.863-37.798-17.586-3.562-2.327-8.002-.257-9.48,3.431-2.309,5.762-.118,11.575,4.873,15.37,31.674,24.086,84.329,34.494,124.47,36.621,35.141,1.862,87.174-2.649,112.812-25.537,3.631-3.242,2.407-9.148.443-11.646-2.932-3.731-6.859-3.111-11.593-1.396-50.681,18.365-131.978,15.804-183.728.743ZM605.058,169.64c4.316-3.117,9.86-3.066,12.711,2.074,3.297,5.944,5.737,13.556,7.286,20.528,1.352,6.088-2.102,10.816-6.803,14.199-32.008,23.036-81.253,19.157-100.366-18.871-15.85-31.536-10.042-74.97,12.854-101.3,12.588-14.475,30.108-23.092,49.032-21.649,34.567,2.636,50.249,32.122,47.791,65.872-.746,10.235-5.446,19.022-14.599,23.808-13.082,6.841-27.427,9.041-42.177,10.301l-9.448.807c7.374,16.98,28.702,15.076,43.719,4.232ZM587.425,126.141c.734-5.676.398-11.801-3.594-15.243-5.66-4.88-14.482-2.677-18.838,2.933-4.083,5.258-5.756,11.238-6.561,17.212,10.706-.498,19.228-1.631,28.993-4.901Z" fill="currentColor"/>
  </g>
</svg>