<?xml version="1.0" encoding="UTF-8"?>
<svg id="a" data-name="Layer 1" xmlns="http://www.w3.org/2000/svg" viewBox="10.32 14.22 261.56 261.56">
  <path d="M249.84,174.411c-14.083,37.522-48.72,60.439-88.013,65.212-16.701,2.029-33.035,1.641-49.576-1.373-17.945-3.27-34.507-10.434-48.772-21.669-23.361-18.399-37.322-46.364-37.099-76.088.014-1.849.321-4.073,1.242-5.441.785-1.165,3.092-2.477,4.921-2.277l44.436,4.864-7.385-9.66c-9.615,5.216-21.533,4.1-28.748-4.004-8.474-9.518-7.078-23.731,3.313-30.705-4.983-6.773-5.343-15.431-1.54-22.94,6.282-12.404,21.709-16.894,33.104-9.254,3.235-5.79,8.647-9.119,14.071-10.252,12.516-2.613,25.942,7.732,25.505,21.639,3.471.236,6.472.944,9.3,1.987,4.279-10.911,12.943-25.69,24.422-25.321,11.987.386,19.165,17.646,22.666,29.03,2.333-2.406,5.177-3.27,8.055-3.486,7.192-7.958,15.501-14.41,25.395-18.112,8.982-3.36,18.283.314,21.325,9.54,2.921,8.857,1.641,18.099-.06,27.184,4.931-1.177,9.58-2.019,14.157-1.198,6.426,1.153,10.962,5.69,12.051,12.02.905,5.263.005,10.35-2.015,15.323l-7.487,14.221,5.888-.84c1.443-.206,3.788.423,4.75,1.276,1.439,1.276,1.976,3.357,2.03,5.366.327,12.179-1.662,23.567-5.936,34.955ZM155.243,140.233c3.16-4.346,5.477-8.787,6.507-13.746-3.333.059-5.652-2.048-5.615-4.699.037-2.711,1.879-4.652,4.607-5.102l3.223-.531c1.762-6.283,1.366-12.467.186-18.657-2.13.276-4.77.402-6.223-.512-2.516-1.582-2.746-4.461-1.617-6.606,1.019-1.935,3.081-3.007,6.053-3.3-.238-8.128-7.855-26.932-13.637-26.76-6.715.199-15.908,18.154-17.118,26.743,2.421.383,4.142.825,5.324,1.79,1.223.997,1.975,3.365,1.416,4.864-1.418,3.803-5.387,4.608-9.226,3.437-2.018,6.192-2.513,12.834-.941,19.117,2.465.027,5.011.389,6.504,2.054,1.404,1.565,1.43,3.869.306,5.629-.804,1.259-2.701,2.163-4.916,2.544.585,4.878,2.634,9.641,5.81,13.77l19.356-.034ZM122.944,140.07c-.754-1.72-1.328-3.751-2.095-4.477l-4.363-4.129-24.957-26.211c-2.221-2.332-1.003-5.826,1.033-7.313,2.832-2.069,5.271-.679,7.472,1.643l17.614,18.582c-4.065-15.667,2.393-24.77,2.667-26.753l.897-6.497c-7.758-5.451-12.123,3.115-16.85-1.248-1.452-1.341-2.373-3.878-1.28-5.772,2.293-3.973,2.259-8.391-.193-11.919-2.382-3.426-6.247-5.256-10.809-4.58-4.019.596-8.094,3.838-8.932,7.995-.5,2.481-1.068,4.499-3.316,5.343-1.893.711-4.433.138-5.707-1.527-5.114-6.685-14.317-7.126-20.081-1.093-2.67,2.795-3.84,6.011-3.38,10.182.927,8.403,9.709,7.352,9.232,13.006-.169,2.005-2.093,3.897-4.335,4.21-4.852.678-8.571,3.681-9.514,8.147-.927,4.391,1.061,8.924,5.405,11.298,4.467,2.442,10.696,1.864,14.517-1.713,1.854-1.735,3.48-3.148,6.145-2.627,2.08.407,3.539,2.181,4.661,4.377,4.117,8.059,10.667,14.707,17.723,20.047l11.571.439,16.874.588ZM189.768,139.102c2.894-2.82,5.912-6.01,7.529-9.642-1.516-1.987-2.714-4.076-1.61-6.433,2.08-4.442,7.162-.702,9.778-4.185,2.718-3.618,5.38-7.755,5.695-12.364-1.661-1.657-3.533-3.829-2.221-6.367.974-1.884,3.152-3.031,5.617-3.174,2.681-8.616,5.37-27.497-.348-30.319-5.999-2.96-21.146,8.512-26.953,14.773.321,2.25-.354,4.503-1.937,5.332-1.86.975-3.437.956-5.856-.199l-5.641,6.909c2.784,7.538,2.517,15.103,1.045,23.036l16.662-23.904c1.841-2.641,5.883-1.886,7.434-.096,2.131,2.46,1.631,4.849-.187,7.341l-29.139,39.941,20.133-.652ZM225.137,135.744c-.042-4.662,3.856-4.571,6.624-4.723,5.31-6.276,13.165-20.504,9.751-26.744-2.313-4.227-13.489-1.074-19.491,1.761-.918,9.832-5.446,19.446-13.581,24.78l-2.244,6.853,18.94-1.928ZM173.244,226.359c39.903-9.182,70.576-41.121,71.832-82.071l-25.887,3.178c-60.683,6.1-121.406,4.971-181.912-3.219l.432,8.287c2.913,19.217,11.708,36.483,25.885,49.872,10.959,10.35,23.856,17.858,38.533,22.101,23.032,6.658,47.422,7.304,71.116,1.852Z" fill="currentColor"/>
</svg>
