<?xml version="1.0" encoding="UTF-8"?>
<svg id="a" data-name="Layer 1" xmlns="http://www.w3.org/2000/svg" width="100mm" height="100mm" viewBox="80.41 66.901 150.963 150.963">
  <path d="M222.011,164.344c-28.743,20.129-64.154,27.941-98.077,21.129-17.443-3.503-34.45-11.439-34.253-29.568l.381-35.035c.201-18.494,40.496-32.656,72.672-17.751,6.663,3.087,12.992,8.619,14.403,15.827l.657,16.841c13.481-4.694,26.01-11.542,36.707-21.677,1.338-.446,3.801-.961,4.894-.736,1.312.27,2.711,3.04,2.708,4.557l-.092,46.413ZM169.143,123.417c.115-3.722-2.618-7.338-5.96-9.623-22.579-15.435-65.13-6.237-64.693,9.66.073,2.652,2.138,7.231,5.148,9.188,26.719,17.376,65.05,5.551,65.506-9.225ZM154.436,171.822l-.014,7.223,15.704-2.04.011-8.464c.002-1.522,2.035-3.937,3.494-4.068,1.253-.113,4.032,1.942,4.07,3.416l.186,7.22,14.526-4.732.092-10.34c.009-1.024,2.355-2.888,3.304-3.069s3.39,1.093,3.486,2.039l.825,8.076,13.479-7.394-.193-32.889c-23.015,17.577-50.527,25.12-79.241,23.635-12.778-.661-24.768-2.764-35.514-10.768l-.185,18.45c-.089,8.866,13.816,16.054,24.408,17.822l.359-6.028c.085-1.434,2.947-3.284,4.306-3.015,1.166.231,3.096,2.523,3.077,3.849l-.103,7.218,16.364,1.081.012-7.346c.002-1.499,2.373-3.661,3.729-3.714,1.421-.056,3.823,2.347,3.82,3.838Z" fill="currentColor"/>
  <path d="M149.997,122.441c2.697,9.314-31.888,11.39-32.256.97-.307-8.696,29.779-9.522,32.256-.97Z" fill="currentColor"/>
</svg>