<?xml version="1.0" encoding="UTF-8"?>
<svg id="a" data-name="Layer 1" xmlns="http://www.w3.org/2000/svg" width="100mm" height="100mm" viewBox="63.706 63.734 155.75 155.75">
  <path d="M119.384,150.921c8.756,4.664,19.275,13.181,14.947,19.799l-5.853,8.948c5.184,6.545,6.131,14.92,1.749,21.72-4.129,6.408-12.107,10.099-19.973,7.89-6.73-1.889-11.197-7.042-12.137-13.981-11.22.864-19.774-8.164-18.794-18.989.566-6.251,4.241-11.583,8.804-14.21,5.676-3.267,11.94-2.795,17.548-.519l9.319-10.651c-2.178-.997-3.999-4.529-2.668-6.638,9.649-15.287,5.95-28.97,13.552-45.509,6.739-14.664,20.164-24.486,36.223-25.411,24.193-1.393,43.021,17.578,41.754,41.67-1.327,25.247-20.877,39.865-44.774,45.833-5.518,1.378-9.655,3.23-13.886,7.249-1.58,1.501-5.58.986-6.936-.649-4.788-5.77,6.104-12.905,16.735-15.906,16.344-4.612,31.692-11.672,37.33-28.221,3.878-11.382,1.446-23.014-6.644-31.324-7.659-7.868-19.559-10.907-30.878-7.22-11.049,3.598-19.837,13.124-21.998,24.606l-4.431,23.552c-1.191,6.329-4.821,12.219-8.99,17.96ZM111.123,199.588c3.017,1.535,6.936.833,9.332-1.198,2.268-1.923,3.791-7.243,2.284-9.873l-5.034-8.785,8.185-12.574-7.261-6.337-8.881,9.918c-3.655,4.082-12.953-6.555-19.469,1.707-2.436,3.088-2.261,8.137.543,11.335,5.188,5.918,12.533-.912,14.958,2.337,2.096,2.808-1.512,9.982,5.345,13.471Z" fill="currentColor"/>
</svg>