<?xml version="1.0" encoding="UTF-8"?>
<svg id="a" data-name="Layer 1" xmlns="http://www.w3.org/2000/svg" width="100mm" height="100mm" viewBox="81.727 77.911 121.63 121.63">
  <path d="M164.261,172.698c-1.363,10.734-10.407,18.969-20.682,19.358-11.215.424-20.847-7.413-22.401-19.161l-22.059-.445c-3.346-.067-6.567-4.463-6.832-7.053-1.045-10.18,10.876-13.25,11.089-25.307l.349-19.766c2.415-21.135,20.613-35.86,40.674-34.9,21.254,1.018,37.388,18.25,37.415,39.806l.019,14.784c.016,12.802,12.554,15.493,10.873,25.533-.406,2.428-3.308,6.858-6.501,6.895l-21.945.255ZM184.071,163.272c-5.797-6.383-11.237-12.634-11.375-21.007l-.295-17.978c-.12-15.662-12.714-28.35-28.039-29.238-15.061-.872-29.211,10.208-31.247,25.918l-.676,22.311c-.245,8.095-6.046,14.065-11.032,20.035l82.663-.043ZM154.728,172.778l-24.332-.089c1.45,6.793,7.021,10.309,13.02,10.001,5.46-.28,10.657-3.995,11.311-9.912Z" fill="currentColor"/>
</svg>