<?xml version="1.0" encoding="UTF-8"?>
<svg id="a" data-name="Layer 1" xmlns="http://www.w3.org/2000/svg" width="100mm" height="100mm" viewBox="77.775 75.038 127.938 127.938">
  <path d="M197.857,139.007c0,30.99-25.123,56.113-56.113,56.113s-56.113-25.123-56.113-56.113,25.123-56.113,56.113-56.113,56.113,25.123,56.113,56.113ZM146.171,159.612l.193-16.928,16.843.117c2.314.016,4.64-2.423,4.587-4.359-.044-1.579-2.5-4.022-4.006-4.026l-17.506-.046.002-15.595c0-2.446-.923-5.037-3.205-5.673-1.91-.532-5.022,1.566-5.042,3.377l-.198,17.843-17.898.092c-1.897.01-4.095,2.794-3.904,4.742.149,1.523,2.557,3.867,4.113,3.863l17.688-.05.13,16.884c.021,2.745,1.762,4.86,4.496,4.75,1.792-.073,3.681-2.657,3.707-4.989Z" fill="currentColor"/>
</svg>