<?xml version="1.0" encoding="UTF-8"?>
<svg id="a" data-name="Layer 1" xmlns="http://www.w3.org/2000/svg" width="100mm" height="100mm" viewBox="68.843 82.162 126.74 126.74">
  <path d="M162.202,199.461l-58.69.166c-9.219.026-15.746-6.339-18.96-14.82l-7.695-59.473c-1.612-12.463,5.291-22.914,16.931-27.092,24.707-8.869,51.889-9.213,76.641-.183,10.234,3.734,18.62,12.978,17.217,24.203l-7.663,61.302c-1.005,8.04-9.083,15.874-17.782,15.899ZM162.677,190.779c6.526-1.82,8.765-6.742,9.509-12.647l6.791-53.961c1.049-8.332-3.256-14.616-11.078-17.454-22.818-8.279-48.043-8.459-71.022-.082-5.919,2.158-12.178,7.933-11.35,14.521l7.611,60.62c.557,4.439,5.141,8.92,9.587,8.926l59.952.076Z" fill="currentColor"/>
  <path d="M150.973,146.25l-38.124-.165c-6.31-.027-7.96-7.581-7.273-12.407,2.081-14.618,13.377-25.037,27.434-24.571,14.049.465,25.018,11.44,26.044,26.2.335,4.821-2.043,10.97-8.081,10.944ZM147.987,123.264l-3.172,3.498c-.456.502-2.767-.85-3.344-1.38l4.141-5.349c-3.825-2.471-7.701-4.234-11.427-4.98.392,2.552-.104,6.609-1.634,6.746-2.349.21-2.824-3.929-2.147-6.74-3.986.459-8.027,2.331-10.947,4.793l4.208,6.6c-4.127.785-5.048-.709-7.48-3.485-3.69,4.648-5.681,10.504-3.884,16.782l40.121-.071c1.816-6.682-.493-12.25-4.436-16.415Z" fill="currentColor"/>
  <path d="M135.385,133.391c.321.995-.08,3.102-.844,3.605-.955.628-3.483.746-4.427.102s-1.36-3.625-.801-5.267c.536-1.577,5.469-.314,6.073,1.56Z" fill="currentColor"/>
</svg>