<?xml version="1.0" encoding="UTF-8"?>
<svg id="a" data-name="Layer 1" xmlns="http://www.w3.org/2000/svg" width="100mm" height="100mm" viewBox="84.956 64.968 116.324 116.324">
  <path d="M183.185,172.4l-20.003-20.293c-12.729,8.701-28.273,10.944-43.126,4.559-12.42-5.339-22.656-17.121-25.476-32.144-5.115-27.255,15.748-52.714,43.71-52.409,17.096.186,31.624,10.454,38.55,24.603,7.864,16.067,5.801,34.609-6.027,48.087l20.842,21.224c1.477,1.504.638,5.829-.795,6.957-2.217,1.747-5.611,1.511-7.676-.584ZM171.753,116.15c0-18.834-15.268-34.103-34.103-34.103s-34.103,15.268-34.103,34.103,15.268,34.103,34.103,34.103,34.103-15.268,34.103-34.103Z" fill="currentColor"/>
</svg>