<?xml version="1.0" encoding="UTF-8"?>
<svg id="a" data-name="Layer 1" xmlns="http://www.w3.org/2000/svg" width="100mm" height="100mm" viewBox="83.799 74.336 129.311 129.311">
  <path d="M129.342,194.701c-8.178-2.192-20.538-8.38-21.569-14.581-.614-3.689.823-7.043,2.764-10.487l-5.192-9.476c-6.759.539-13.082-2.99-13.24-9.996l-.363-16.075c-.142-6.284,5.663-10.101,11.791-9.786l4.696-10.21c-2.034-3.068-3.842-6.846-3.48-10.436.691-6.853,11.302-14.787,18.597-17.291,6.244-2.143,11.613.899,14.373,6.506l12.7-1.13c1.919-6.544,7.526-9.885,14.157-8.656,7.716,1.431,15.479,5.225,20.989,10.984,4.208,4.397,3.493,10.938.152,16.069l6.314,11.241c6.581-.912,11.334,3.142,12.361,9.286.976,5.84,1.11,12.71-.035,18.423-1.176,5.871-6.482,8.398-11.799,8.327l-5.984,11.11c4.273,5.586,3.898,12.619-1.412,16.831-4.738,3.758-10.513,7.188-16.255,8.937-6.148,1.873-11.017-1.684-13.297-7.061l-12.513.054c-2.073,5.521-7.116,9.195-13.756,7.415ZM130.088,186.49c2.097,1.051,5.275-1.174,5.99-3.065,1.385-3.662,4.134-4.59,7.617-4.69l11.14-.32c8.097-.233,5.947,6.024,11.942,8.194,5.131-2.356,10.392-5.463,14.705-9.173l-3.574-10.28,8.804-16.529,9.586-2.221c.697-6.4.731-13.071-.826-18.568-3.794-.51-7.58-1.226-9.899-2.481l-8.101-14.645c-.511-5.234,4.856-10.822,1.852-13.245-8.193-6.611-19.053-12.183-21.507-4.752-1.284,3.887-4.228,5.281-7.957,5.552l-11.264.818c-3.054.222-5.798-.833-7.313-3.753-1.395-2.687-4.802-4.082-7.33-2.347l-8.43,5.784c-5.923,4.064,1.844,8.583,1.354,13.93l-6.913,15.496-9.767,3.095c-.645,6.165-.482,12.308.883,17.766l9.529,1.684,8.229,14.418c2.149,3.765-6.021,10.673-.143,13.62l11.392,5.711Z" fill="currentColor"/>
  <path d="M168.958,139.714c0,11.493-9.317,20.81-20.81,20.81s-20.81-9.317-20.81-20.81,9.317-20.81,20.81-20.81,20.81,9.317,20.81,20.81ZM160.388,139.58c0-6.752-5.474-12.226-12.226-12.226s-12.226,5.474-12.226,12.226,5.474,12.226,12.226,12.226,12.226-5.474,12.226-12.226Z" fill="currentColor"/>
</svg>