<?xml version="1.0" encoding="UTF-8"?>
<svg id="a" data-name="Layer 1" xmlns="http://www.w3.org/2000/svg" viewBox="73.28 61.91 172.44 172.44">
  <path d="M154.688,221.054c-14.912,5.703-29.446,2.182-41.072-8.59-7.624-7.064-13.313-15.541-17.596-25.034-8.729-19.35-11.588-41.16-1.038-60.145,10.298-18.532,32.905-26.528,51.924-17.077l7.814,3.883c-.991-6.62-4.017-12.278-8.392-17.032-2.726-2.963-6.155-4.67-9.872-5.937-2.398-.817-3.4-3.648-2.692-5.902.691-2.2,3.179-3.709,5.78-2.906,8.124,2.507,14.752,8.039,18.864,15.535,5.602-14.178,18.639-23.695,33.761-25.17,5.682-.554,10.908.235,16.5,1.241,2.734.492,5.231,2.542,4.677,5.731-1.876,10.801-7.295,20.631-16.04,27.54,13.243,3.152,23.566,12.07,28.853,24.426,3.906,9.128,5.394,18.738,4.293,28.731-1.579,14.324-6.452,27.718-14.344,39.692-4.449,6.75-9.755,12.343-16.357,16.943-10.341,7.205-23.092,8.67-34.949,4.322-3.464-1.27-6.604-1.594-10.114-.251ZM203.081,82.551c-20.074-3.434-37.016,9.175-38.497,29.496,4.377-2.091,8.56-3.738,13.095-5.2,12.335-3.977,21.856-11.498,25.401-24.296ZM210.657,190.967c5.627-9.619,9.223-20.066,10.446-31.154.982-8.908-.345-17.553-4.055-25.553-6.246-13.47-20.386-20.691-34.927-17.978-5.641,1.053-10.521,2.929-15.267,6.209-10.663,7.369-19.763-3.646-29.414-5.933-14.401-3.412-28.758,3.823-35.26,17.061-4.022,8.189-5.422,17.075-4.339,26.322,1.481,12.642,5.965,24.484,12.989,35.013,3.142,4.71,6.733,8.526,10.988,12.156,8.301,7.082,19.337,9.082,29.641,5.236,5.286-1.973,10.159-2.16,15.471-.161,5.858,2.205,12.302,2.803,18.369,1.172,10.827-2.91,19.754-12.81,25.358-22.39Z" fill="currentColor"/>
</svg>
