<?xml version="1.0" encoding="UTF-8"?>
<svg xmlns="http://www.w3.org/2000/svg" width="100mm" height="100mm" viewBox="0 0 283.465 283.465">
  <g id="b" data-name="Layer 2">
    <g>
      <path d="M148.311,211.76c-7.316,3.42-19.062,6.009-27.284,6.346-4.29.176-8.134-2.178-9.4-6.379-2.184-7.249-3.961-14.538-5.607-22.008-5.768-26.187-10.491-52.445-14.486-78.929-1.851.395-3.706.834-5.538.798-2.957-.058-5.34-1.828-6.225-4.599-.567-1.776-.969-3.487-1.286-5.39-1.589-9.529-2.348-19.044-2.232-28.731.069-5.789,4.862-8.61,9.862-10.595,12.306-4.883,25.067-8.153,38.194-10.124,12.033-1.807,25.588-2.585,37.413.018,12.259,2.698,22.168,9.379,27.591,20.856,2.3,4.867,3.78,9.824,4.696,15.205,1.776,10.431,1.94,20.971.629,31.475-2.349,18.829-11.131,34.877-27.93,44.261-5.971,3.335-12.218,5.726-18.92,7.645l2.595,14.27,2.896,16.538c.662,3.964-1.269,7.616-4.97,9.345ZM157.276,115.955c.244-3.386-.013-6.65-1.129-9.846-3.389-8.89-12.234-11.63-21.268-9.028l2.973,21.004,2.537,16.048c9.415-1.737,16.198-8.612,16.886-18.178Z" fill="currentColor"/>
      <path d="M196.718,215.024c2.336-1.362,5.079.12,6.323,1.978,1.338,1.998,1.299,5.002-.806,6.675-7.226,5.746-15.359,10.079-24.041,13.348-29.168,10.983-64.701,9.176-92.093-5.833-4.209-2.306-8.121-4.775-11.762-7.877-1.97-1.679-2.004-4.619-.631-6.704,1.158-1.757,4.03-3.221,6.263-1.888,6.716,4.008,13.661,7.114,21.26,9.287,10.26,2.933,20.692,4.45,31.358,4.875l11.755.017c10.329-.356,20.418-1.772,30.389-4.509,7.805-2.142,14.943-5.264,21.983-9.37Z" fill="currentColor"/>
    </g>
  </g>
</svg>