<?xml version="1.0" encoding="UTF-8"?>
<svg id="a" data-name="Layer 1" xmlns="http://www.w3.org/2000/svg" width="100mm" height="100mm" viewBox="90.949 80.143 119.58 119.58">
  <path d="M178.212,114.627c0,14.99-12.152,27.141-27.141,27.141s-27.141-12.152-27.141-27.141,12.152-27.141,27.141-27.141,27.141,12.152,27.141,27.141ZM158.905,129.947c6.245-3.423,9.309-9.415,9.181-15.476-.128-6.118-3.219-11.805-9.075-15.162-7.184-4.119-16.464-1.748-21.296,4.37-5.117,6.479-4.955,15.539-.084,21.73s13.895,8.582,21.274,4.538Z" fill="currentColor"/>
  <path d="M167.022,160.994c-11.21-4.126-23.385-3.791-33.673.664-11.607,5.026-18.182,14.719-18.677,27.277-.099,2.522-4.874,4.078-6.586,3.123-2.528-1.41-3.414-4.091-3.03-7.062,2.045-15.841,11.386-27.924,26.401-33.406,16.054-5.862,34.511-4.426,48.977,5.286,15.698,10.539,20.788,35.491,11.286,35.505-2.307.003-4.847-2.376-4.959-5.378-.443-11.905-8.277-21.79-19.739-26.009Z" fill="currentColor"/>
</svg>