<?xml version="1.0" encoding="UTF-8"?>
<svg id="a" data-name="Layer 1" xmlns="http://www.w3.org/2000/svg" width="100mm" height="100mm" viewBox="45.433 55.286 163.681 163.681">
  <path d="M172.456,178.215c-10.552,23.53-34.717,35.224-59.252,29.084-21.976-5.5-36.388-23.822-36.751-46.757-.265-16.754,6.737-32.187,17.569-45.091,7.638-9.099,13.568-18.41,18.943-29.055,7.028-13.919,21.652-22.775,37.281-20.78,13.707,1.749,23.937,12.124,26.099,25.481,1.076,6.646.723,13.377-.358,20.002-3.586,21.993,8.884,39.429-3.531,67.116ZM167.668,141.797c-2.35-13.603-2.747-26.134-.491-39.929,2.074-12.68-5.855-25.445-18.823-26.684-11.011-1.052-21.095,5.644-26.251,15.253-5.736,10.688-11.393,20.445-19.339,29.698-8.167,9.511-14.198,20.262-16.072,32.502-3.798,24.797,13.815,45.992,38.702,46.188,30.005.236,46.991-29.726,42.275-57.03Z" fill="currentColor"/>
  <path d="M134.223,178.081c-13,6.047-26.434-1.658-29.506-14.894-2.825-12.171,2.6-25.204,13.136-31.788,10.354-6.47,22.806-3.207,28.769,7.374,7.791,13.826,2.647,32.309-12.399,39.308ZM128.722,170.707c10.689-3.686,15.153-15.624,11.924-24.767-8.815-3.676-.201,14.23-15.633,20.313-.912.36-1.617,3.02-.879,3.544s3.587,1.254,4.588.909Z" fill="currentColor"/>
</svg>